<svg width="282" height="604" viewBox="0 0 282 604" fill="none" xmlns="http://www.w3.org/2000/svg">
<ellipse cx="182.245" cy="84.821" rx="15.3469" ry="13.9815" fill="white"/>
<ellipse cx="226.367" cy="159.389" rx="15.3469" ry="13.9815" fill="white"/>
<circle cx="109" cy="356.148" r="15" fill="white"/>
<ellipse cx="212.939" cy="394.278" rx="15.3469" ry="13.9815" fill="white"/>
<circle cx="266.306" cy="488.506" r="15" fill="white"/>
<circle cx="109" cy="532.975" r="15" fill="white"/>
<g opacity="0.1">
<path d="M35.25 581.164C35.25 592.582 20.1429 602.369 20.1429 602.369C20.1429 602.369 5.03571 592.582 5.03571 581.164C5.03571 577.27 6.62735 573.536 9.46049 570.783C12.2936 568.03 16.1362 566.483 20.1429 566.483C24.1495 566.483 27.9921 568.03 30.8252 570.783C33.6584 573.536 35.25 577.27 35.25 581.164Z" stroke="#25282B" stroke-width="2" stroke-linecap="round" stroke-linejoin="round"/>
<path d="M20.1429 586.057C22.924 586.057 25.1786 583.866 25.1786 581.164C25.1786 578.461 22.924 576.27 20.1429 576.27C17.3617 576.27 15.1071 578.461 15.1071 581.164C15.1071 583.866 17.3617 586.057 20.1429 586.057Z" stroke="#25282B" stroke-width="2" stroke-linecap="round" stroke-linejoin="round"/>
</g>
<g opacity="0.1">
<path d="M252.026 16.3117C252.026 27.7299 236.918 37.517 236.918 37.517C236.918 37.517 221.811 27.7299 221.811 16.3117C221.811 12.4182 223.403 8.68414 226.236 5.931C229.069 3.17786 232.912 1.63116 236.918 1.63116C240.925 1.63116 244.768 3.17786 247.601 5.931C250.434 8.68414 252.026 12.4182 252.026 16.3117Z" stroke="#25282B" stroke-width="2" stroke-linecap="round" stroke-linejoin="round"/>
<path d="M236.918 21.2052C239.7 21.2052 241.954 19.0143 241.954 16.3117C241.954 13.6091 239.7 11.4182 236.918 11.4182C234.137 11.4182 231.883 13.6091 231.883 16.3117C231.883 19.0143 234.137 21.2052 236.918 21.2052Z" stroke="#25282B" stroke-width="2" stroke-linecap="round" stroke-linejoin="round"/>
</g>
</svg>
