<svg width="282" height="604" viewBox="0 0 282 604" fill="none" xmlns="http://www.w3.org/2000/svg">
<ellipse cx="182.245" cy="84.821" rx="15.3469" ry="13.9815" fill="white"/>
<ellipse cx="226.367" cy="159.389" rx="15.3469" ry="13.9815" fill="white"/>
<circle cx="109" cy="356.148" r="15" fill="white"/>
<ellipse cx="212.939" cy="394.278" rx="15.3469" ry="13.9815" fill="white"/>
<circle cx="266.306" cy="488.506" r="15" fill="white"/>
<circle cx="109" cy="532.975" r="15" fill="white"/>
<g opacity="0.1">
<path d="M35.25 581.164C35.25 592.582 20.1429 602.369 20.1429 602.369C20.1429 602.369 5.03571 592.582 5.03571 581.164C5.03571 577.27 6.62735 573.536 9.46049 570.783C12.2936 568.03 16.1362 566.483 20.1429 566.483C24.1495 566.483 27.9921 568.03 30.8252 570.783C33.6584 573.536 35.25 577.27 35.25 581.164Z" stroke="#25282B" stroke-width="2" stroke-linecap="round" stroke-linejoin="round"/>
<path d="M20.1429 586.057C22.924 586.057 25.1786 583.866 25.1786 581.164C25.1786 578.461 22.924 576.27 20.1429 576.27C17.3617 576.27 15.1071 578.461 15.1071 581.164C15.1071 583.866 17.3617 586.057 20.1429 586.057Z" stroke="#25282B" stroke-width="2" stroke-linecap="round" stroke-linejoin="round"/>
</g>
<g opacity="0.1">
<path d="M252.026 16.3117C252.026 27.7299 236.918 37.517 236.918 37.517C236.918 37.517 221.811 27.7299 221.811 16.3117C221.811 12.4182 223.403 8.68414 226.236 5.931C229.069 3.17786 232.912 1.63116 236.918 1.63116C240.925 1.63116 244.768 3.17786 247.601 5.931C250.434 8.68414 252.026 12.4182 252.026 16.3117Z" stroke="#25282B" stroke-width="2" stroke-linecap="round" stroke-linejoin="round"/>
<path d="M236.918 21.2052C239.7 21.2052 241.954 19.0143 241.954 16.3117C241.954 13.6091 239.7 11.4182 236.918 11.4182C234.137 11.4182 231.883 13.6091 231.883 16.3117C231.883 19.0143 234.137 21.2052 236.918 21.2052Z" stroke="#25282B" stroke-width="2" stroke-linecap="round" stroke-linejoin="round"/>
</g>
<g clip-path="url(#clip0_25_26)">
<path d="M247 22C247 29 238 35 238 35C238 35 229 29 229 22C229 19.6131 229.948 17.3239 231.636 15.636C233.324 13.9482 235.613 13 238 13C240.387 13 242.676 13.9482 244.364 15.636C246.052 17.3239 247 19.6131 247 22Z" stroke="white" stroke-width="2" stroke-linecap="round" stroke-linejoin="round"/>
<path d="M238 25C239.657 25 241 23.6569 241 22C241 20.3431 239.657 19 238 19C236.343 19 235 20.3431 235 22C235 23.6569 236.343 25 238 25Z" stroke="white" stroke-width="2" stroke-linecap="round" stroke-linejoin="round"/>
<path d="M238.5 35.5C257.41 148.254 247.925 186.333 72 195.266C56.2078 196.068 39.0745 196.635 20.5001 197C-9.37137 242.682 -18.5673 290.63 20.5001 348.5C98.3379 397.329 144.274 415.846 260.5 412C303.554 432.064 284.919 454.806 260.5 493C259.513 543.913 71.5024 570.14 57.5 531C43.4977 491.86 -15 531 11.5 556" stroke="url(#paint0_linear_25_26)" stroke-width="2" stroke-linejoin="round" stroke-dasharray="10 4"/>
</g>
<g clip-path="url(#clip1_25_26)">
<path d="M28 575C28 582 19 588 19 588C19 588 10 582 10 575C10 572.613 10.9482 570.324 12.636 568.636C14.3239 566.948 16.6131 566 19 566C21.3869 566 23.6761 566.948 25.364 568.636C27.0518 570.324 28 572.613 28 575Z" stroke="white" stroke-width="2" stroke-linecap="round" stroke-linejoin="round"/>
<path d="M19 578C20.6569 578 22 576.657 22 575C22 573.343 20.6569 572 19 572C17.3431 572 16 573.343 16 575C16 576.657 17.3431 578 19 578Z" stroke="white" stroke-width="2" stroke-linecap="round" stroke-linejoin="round"/>
<path d="M19.5 588.5C38.4104 701.254 28.9253 739.333 -147 748.266C-162.792 749.068 -179.926 749.635 -198.5 750C-228.371 795.682 -237.567 843.63 -198.5 901.5C-120.662 950.329 -74.7261 968.846 41.5 965C84.5538 985.064 65.9188 1007.81 41.5 1046C40.5128 1096.91 -147.498 1123.14 -161.5 1084C-175.502 1044.86 -234 1084 -207.5 1109" stroke="url(#paint1_linear_25_26)" stroke-width="2" stroke-linejoin="round" stroke-dasharray="10 4"/>
</g>
<path opacity="0.5" d="M239.053 36C252.472 60.2346 158.482 76.0802 169.033 124.549C179.584 173.019 239.053 128.278 239.053 176.747C239.053 225.216 155.615 240.13 155.615 240.13C35.3648 263.121 73.9824 369.444 213.155 392.994C300.482 424.297 290.2 516.386 213.155 534.673C118.866 534.297 14.3841 510.432 21.3284 563.568" stroke="white" stroke-width="5"/>
<defs>
<linearGradient id="paint0_linear_25_26" x1="90.4645" y1="33.9825" x2="-14.0297" y2="193.327" gradientUnits="userSpaceOnUse">
<stop stop-color="#E0E095"/>
<stop offset="0.248943" stop-color="#EE4A32"/>
<stop offset="0.568912" stop-color="#EB6E61"/>
<stop offset="0.703686" stop-color="#E0E095"/>
<stop offset="1" stop-color="#CEFECD"/>
</linearGradient>
<linearGradient id="paint1_linear_25_26" x1="-128.535" y1="586.983" x2="-233.03" y2="746.327" gradientUnits="userSpaceOnUse">
<stop stop-color="#E0E095"/>
<stop offset="0.248943" stop-color="#EE4A32"/>
<stop offset="0.568912" stop-color="#EB6E61"/>
<stop offset="0.703686" stop-color="#E0E095"/>
<stop offset="1" stop-color="#CEFECD"/>
</linearGradient>
<clipPath id="clip0_25_26">
<rect width="24" height="24" fill="white" transform="translate(226 12)"/>
</clipPath>
<clipPath id="clip1_25_26">
<rect width="24" height="24" fill="white" transform="translate(7 565)"/>
</clipPath>
</defs>
</svg>
